<?xml version="1.0" encoding="UTF-8" standalone="no"?>
<!-- Uploaded to: SVG Repo, www.svgrepo.com, Generator: SVG Repo Mixer Tools -->

<svg
   height="800px"
   width="800px"
   version="1.1"
   id="Layer_1"
   viewBox="0 0 512 512"
   xml:space="preserve"
   sodipodi:docname="coin.svg"
   inkscape:version="1.3.2 (091e20e, 2023-11-25, custom)"
   xmlns:inkscape="http://www.inkscape.org/namespaces/inkscape"
   xmlns:sodipodi="http://sodipodi.sourceforge.net/DTD/sodipodi-0.dtd"
   xmlns="http://www.w3.org/2000/svg"
   xmlns:svg="http://www.w3.org/2000/svg"><defs
   id="defs15" /><sodipodi:namedview
   id="namedview15"
   pagecolor="#ffffff"
   bordercolor="#000000"
   borderopacity="0.25"
   inkscape:showpageshadow="2"
   inkscape:pageopacity="0.0"
   inkscape:pagecheckerboard="0"
   inkscape:deskcolor="#d1d1d1"
   inkscape:zoom="0.97125"
   inkscape:cx="400"
   inkscape:cy="400"
   inkscape:window-width="1920"
   inkscape:window-height="991"
   inkscape:window-x="-9"
   inkscape:window-y="-9"
   inkscape:window-maximized="1"
   inkscape:current-layer="Layer_1" />
<path
   d="M256,0C128.939,0,25.6,103.339,25.6,230.4c0,2.56,0,68.267,0,68.267C25.6,416.341,128.939,512,256,512  s230.4-95.659,230.4-213.333c0,0,0-65.707,0-68.267C486.4,103.339,383.061,0,256,0z M76.8,375.467v29.525  c-17.493-24.832-29.013-53.504-32.768-84.309c8.448,19.712,19.541,37.973,32.853,54.443C76.885,375.211,76.8,375.296,76.8,375.467z   M119.467,449.365c-9.216-7.168-17.749-14.933-25.6-23.381v-32.085c8.107,8.021,16.384,17.493,25.6,24.235  C119.467,426.667,119.467,449.365,119.467,449.365z M162.133,474.88c-8.96-4.096-17.493-8.619-25.685-13.739  c0-0.085,0.085-0.256,0.085-0.341v-33.451c8.192,4.949,16.811,9.387,25.6,13.397V474.88z M204.8,489.216  c-8.789-2.048-17.323-4.523-25.6-7.509v-34.133c8.363,2.987,16.896,5.461,25.6,7.424V489.216z M247.467,494.763  c-8.704-0.341-17.237-1.109-25.6-2.389V458.24c8.363,1.28,16.981,2.048,25.6,2.304V494.763z M290.133,492.373  c-8.363,1.28-16.896,2.048-25.6,2.389v-34.219c8.619-0.256,17.237-1.024,25.6-2.304V492.373z M332.8,481.707  c-8.277,2.987-16.811,5.461-25.6,7.509v-34.219c8.704-1.963,17.237-4.437,25.6-7.424V481.707z M349.867,474.88v-34.133  c8.789-4.011,17.408-8.448,25.6-13.397V460.8c0,0.085,0.085,0.256,0.085,0.341C367.36,466.261,358.827,470.784,349.867,474.88z   M418.133,425.984c-7.851,8.448-16.384,16.213-25.6,23.381c0-24.832,0-24.832,0-31.232c9.216-6.741,17.493-16.213,25.6-24.235  V425.984z M435.2,404.992v-29.525c0-0.171-0.085-0.256-0.085-0.341c13.312-16.469,24.405-34.731,32.853-54.443  C464.213,351.488,452.693,380.16,435.2,404.992z M256,443.051c-117.248,0-212.651-95.403-212.651-212.651S138.752,17.749,256,17.749  S468.651,113.152,468.651,230.4S373.248,443.051,256,443.051z"
   id="path1" />
<g
   id="g11">
	<path
   style="fill:#F9A825;"
   d="M76.885,375.125c0,0.085-0.085,0.171-0.085,0.341v29.525   c-17.493-24.832-29.013-53.504-32.768-84.309C52.48,340.395,63.573,358.656,76.885,375.125z"
   id="path2" />
	<path
   style="fill:#F9A825;"
   d="M119.467,418.133c0,8.533,0,31.232,0,31.232c-9.216-7.168-17.749-14.933-25.6-23.381v-32.085   C101.973,401.92,110.251,411.392,119.467,418.133z"
   id="path3" />
	<path
   style="fill:#F9A825;"
   d="M162.133,440.747v34.133c-8.96-4.096-17.493-8.619-25.685-13.739c0-0.085,0.085-0.256,0.085-0.341   v-33.451C144.725,432.299,153.344,436.736,162.133,440.747z"
   id="path4" />
	<path
   style="fill:#F9A825;"
   d="M204.8,454.997v34.219c-8.789-2.048-17.323-4.523-25.6-7.509v-34.133   C187.563,450.56,196.096,453.035,204.8,454.997z"
   id="path5" />
	<path
   style="fill:#F9A825;"
   d="M247.467,460.544v34.219c-8.704-0.341-17.237-1.109-25.6-2.389V458.24   C230.229,459.52,238.848,460.288,247.467,460.544z"
   id="path6" />
	<path
   style="fill:#F9A825;"
   d="M290.133,458.24v34.133c-8.363,1.28-16.896,2.048-25.6,2.389v-34.219   C273.152,460.288,281.771,459.52,290.133,458.24z"
   id="path7" />
	<path
   style="fill:#F9A825;"
   d="M332.8,447.573v34.133c-8.277,2.987-16.811,5.461-25.6,7.509v-34.219   C315.904,453.035,324.437,450.56,332.8,447.573z"
   id="path8" />
	<path
   style="fill:#F9A825;"
   d="M375.552,461.141c-8.192,5.12-16.725,9.643-25.685,13.739v-34.133   c8.789-4.011,17.408-8.448,25.6-13.397V460.8C375.467,460.885,375.552,461.056,375.552,461.141z"
   id="path9" />
	<path
   style="fill:#F9A825;"
   d="M418.133,393.899v32.085c-7.851,8.448-16.384,16.213-25.6,23.381c0-24.832,0-24.832,0-31.232   C401.749,411.392,410.027,401.92,418.133,393.899z"
   id="path10" />
	<path
   style="fill:#F9A825;"
   d="M435.2,404.992v-29.525c0-0.171-0.085-0.256-0.085-0.341c13.312-16.469,24.405-34.731,32.853-54.443   C464.213,351.488,452.693,380.16,435.2,404.992z"
   id="path11" />
</g>
<path
   style="fill:#FFC107;"
   d="M256,17.749c-117.248,0-212.651,95.403-212.651,212.651S138.752,443.051,256,443.051  S468.651,347.648,468.651,230.4S373.248,17.749,256,17.749z M256,407.637c-97.707,0-177.237-79.531-177.237-177.237  S158.293,53.163,256,53.163S433.237,132.693,433.237,230.4S353.707,407.637,256,407.637z"
   id="path12" />
<path
   d="M256,53.163c-97.707,0-177.237,79.531-177.237,177.237S158.293,407.637,256,407.637S433.237,328.107,433.237,230.4  S353.707,53.163,256,53.163z M256,389.888c-87.979,0-159.488-71.509-159.488-159.488S168.021,70.912,256,70.912  S415.488,142.421,415.488,230.4S343.979,389.888,256,389.888z"
   id="path13" />

<g
   id="g17"><path
     d="M311.637,345.771c0,4.779-3.84,8.533-8.533,8.533c-56.491,0-104.107-37.973-119.04-89.771h-21.931  c-4.693,0-8.533-3.84-8.533-8.533c0-4.693,3.84-8.533,8.533-8.533h18.347c-0.768-5.632-1.28-11.264-1.28-17.067  c0-2.901,0.256-5.717,0.427-8.533h-15.957c-4.693,0-8.533-3.84-8.533-8.533s3.84-8.533,8.533-8.533h18.261  c11.776-56.064,61.611-98.304,121.173-98.304c4.693,0,8.533,3.755,8.533,8.533c0,4.693-3.84,8.533-8.533,8.533  c-50.091,0-92.075,34.645-103.595,81.237H281.6c4.693,0,8.533,3.84,8.533,8.533s-3.84,8.533-8.533,8.533h-84.907  c-0.256,2.816-0.427,5.632-0.427,8.533c0,5.803,0.597,11.52,1.536,17.067H281.6c4.693,0,8.533,3.84,8.533,8.533  c0,4.693-3.84,8.533-8.533,8.533h-79.616c14.251,42.24,54.187,72.704,101.12,72.704  C307.797,337.237,311.637,341.077,311.637,345.771z"
     id="path15"
     style="stroke:#f9a825;stroke-width:1.152;stroke-dasharray:none;stroke-opacity:1;fill:#f9a825;fill-opacity:1" /><path
     style="fill:#f9a825;fill-opacity:1"
     d="M256,70.912c-87.979,0-159.488,71.509-159.488,159.488S168.021,389.888,256,389.888  S415.488,318.379,415.488,230.4S343.979,70.912,256,70.912z M281.6,204.8c4.693,0,8.533,3.84,8.533,8.533s-3.84,8.533-8.533,8.533  h-84.907c-0.256,2.816-0.427,5.632-0.427,8.533c0,5.803,0.597,11.52,1.536,17.067H281.6c4.693,0,8.533,3.84,8.533,8.533  c0,4.693-3.84,8.533-8.533,8.533h-79.616c14.251,42.24,54.187,72.704,101.12,72.704c4.693,0,8.533,3.84,8.533,8.533  c0,4.779-3.84,8.533-8.533,8.533c-56.491,0-104.107-37.973-119.04-89.771h-21.931c-4.693,0-8.533-3.84-8.533-8.533  c0-4.693,3.84-8.533,8.533-8.533h18.347c-0.768-5.632-1.28-11.264-1.28-17.067c0-2.901,0.256-5.717,0.427-8.533h-15.957  c-4.693,0-8.533-3.84-8.533-8.533s3.84-8.533,8.533-8.533h18.261c11.776-56.064,61.611-98.304,121.173-98.304  c4.693,0,8.533,3.755,8.533,8.533c0,4.693-3.84,8.533-8.533,8.533c-50.091,0-92.075,34.645-103.595,81.237H281.6z"
     id="path14" /></g>
<g
   style="fill:#000000"
   id="g18"
   transform="matrix(0.5019305,0,0,0.46044564,127.44154,113.41549)"><path
     d="m 501.404,279.462 c -2.869,-8.763 -12.299,-13.537 -21.062,-10.673 l -22.835,7.475 C 454.959,262.631 451.282,248.827 446.499,235.088 485.4,220.098 512,182.509 512,139.375 512,82.805 465.977,36.781 409.406,36.781 c -35.396,0 -67.572,17.943 -86.224,46.943 -43.799,-21.545 -90.548,-21.555 -134.365,0 C 170.165,54.726 137.989,36.781 102.593,36.781 46.023,36.782 0,82.805 0,139.375 c 0,43.134 26.6,80.722 65.501,95.713 -4.779,13.744 -8.456,27.549 -11.004,41.178 l -22.84,-7.476 c -8.766,-2.865 -18.193,1.911 -21.062,10.673 -2.868,8.764 1.91,18.194 10.673,21.062 l 29.249,9.574 c -1.003,22.293 1.266,44.993 8.899,66.152 L 21.832,387.1 c -8.859,2.557 -13.968,11.812 -11.41,20.67 2.558,8.862 11.815,13.968 20.67,11.41 l 43.973,-12.694 c 38.777,55.062 114.257,68.733 180.933,68.733 66.73,0 142.172,-13.693 180.934,-68.733 l 43.973,12.693 c 8.86,2.559 18.115,-2.553 20.67,-11.41 2.558,-8.859 -2.551,-18.114 -11.41,-20.67 L 452.581,376.25 c 7.65,-21.205 9.898,-43.914 8.9,-66.151 l 29.249,-9.574 c 8.765,-2.869 13.543,-12.299 10.674,-21.063 z M 312.803,115.928 c -3.773,49.432 -28.621,89.521 -56.803,89.521 -28.182,0 -53.029,-40.087 -56.803,-89.521 35.972,-19.265 74.942,-20.705 113.606,0 z M 256,378.54 c -19.574,0 -34.756,-9.771 -34.756,-18.177 0,-8.406 15.182,-18.176 34.756,-18.176 19.574,0 34.756,9.77 34.756,18.176 0,8.406 -15.182,18.177 -34.756,18.177 z m 164.379,-11.586 -41.816,-12.071 c -8.863,-2.561 -18.115,2.551 -20.67,11.41 -2.558,8.859 2.551,18.114 11.41,20.67 l 32.864,9.486 c -30.674,33.537 -83.885,43.309 -129.47,45.058 v -31.083 c 29.885,-5.498 51.452,-25.52 51.452,-50.062 0,-28.916 -29.934,-51.567 -68.147,-51.567 -38.213,0 -68.147,22.652 -68.147,51.567 0,24.543 21.566,44.563 51.452,50.062 v 31.083 c -45.602,-1.751 -98.803,-11.528 -129.47,-45.058 l 32.863,-9.486 c 8.859,-2.557 13.968,-11.812 11.41,-20.67 -2.557,-8.859 -11.806,-13.969 -20.67,-11.41 l -41.814,12.07 C 86.433,353.543 83.811,338.249 83.7,320.96 l 49.176,16.098 c 8.79,2.873 18.199,-1.932 21.062,-10.673 2.868,-8.763 -1.91,-18.194 -10.673,-21.062 L 86.538,286.754 c 3.041,-18.231 8.475,-36.999 16.148,-55.519 l 0.168,-0.404 c 4.464,-9.918 -1.616,-21.413 -12.337,-23.296 -33.099,-5.815 -57.123,-34.48 -57.123,-68.159 0,-38.158 31.044,-69.202 69.202,-69.202 27.211,0 51.597,15.721 62.879,40.279 2.566,70.785 40.381,128.387 90.525,128.387 56.462,0 88.326,-67.681 90.527,-128.388 11.282,-24.559 35.669,-40.279 62.879,-40.279 38.158,0 69.202,31.044 69.202,69.202 0,33.681 -24.024,62.346 -57.123,68.159 -10.533,1.849 -16.644,13.014 -12.514,22.888 7.86,18.79 13.416,37.833 16.499,56.33 l -56.733,18.571 c -8.763,2.868 -13.541,12.298 -10.673,21.062 2.868,8.76 12.292,13.541 21.062,10.673 l 49.178,-16.098 c -0.111,17.288 -2.732,32.583 -7.925,45.994 z M 193.363,260.946 c 0.011,-12.198 -9.868,-22.095 -22.066,-22.106 -12.198,-0.011 -22.095,9.868 -22.106,22.066 -0.011,12.198 9.868,22.095 22.066,22.106 12.199,0.012 22.096,-9.868 22.106,-22.066 z m 168.579,0.146 c 0.011,-12.198 -9.868,-22.095 -22.066,-22.106 -12.198,-0.011 -22.095,9.868 -22.106,22.066 -0.011,12.198 9.868,22.095 22.066,22.106 12.198,0.011 22.095,-9.868 22.106,-22.066 z"
     id="path1-9" /></g></svg>
